<svg width="102" height="34" viewBox="0 0 102 34" fill="none" xmlns="http://www.w3.org/2000/svg">
<path d="M25.0361 11.7927H13.1526V15.3189H21.5802C21.1643 20.2641 17.0499 22.3723 13.1669 22.3723C8.19822 22.3723 3.86362 18.4628 3.86362 12.9844C3.86362 7.64672 7.99637 3.53641 13.1781 3.53641C17.1763 3.53641 19.5322 6.08497 19.5322 6.08497L22.0012 3.52824C22.0012 3.52824 18.8318 0 13.0527 0C5.69349 0 0 6.21136 0 12.9212C0 19.4955 5.35606 25.9067 13.2413 25.9067C20.1765 25.9067 25.2532 21.1561 25.2532 14.1303C25.2512 12.649 25.0361 11.7927 25.0361 11.7927Z" fill="#98A2B3"/>
<path d="M34.7719 9.23901C29.896 9.23901 26.4014 13.0506 26.4014 17.4974C26.4014 22.0094 29.7909 25.8923 34.8289 25.8923C39.3899 25.8923 43.1271 22.4059 43.1271 17.5942C43.1271 12.0791 38.7802 9.23901 34.7719 9.23901ZM34.8198 12.5093C37.2175 12.5093 39.4898 14.4483 39.4898 17.5718C39.4898 20.6291 37.2266 22.6231 34.8086 22.6231C32.1509 22.6231 30.055 20.4945 30.055 17.5473C30.055 14.6634 32.1254 12.5093 34.8198 12.5093Z" fill="#98A2B3"/>
<path d="M52.976 9.23901C48.1001 9.23901 44.6055 13.0506 44.6055 17.4974C44.6055 22.0094 47.9951 25.8923 53.0331 25.8923C57.594 25.8923 61.3312 22.4059 61.3312 17.5942C61.3312 12.0791 56.9843 9.23901 52.976 9.23901ZM53.0249 12.5093C55.4226 12.5093 57.6949 14.4483 57.6949 17.5718C57.6949 20.6291 55.4318 22.6231 53.0137 22.6231C50.356 22.6231 48.2601 20.4945 48.2601 17.5473C48.2601 14.6634 50.3306 12.5093 53.0249 12.5093Z" fill="#98A2B3"/>
<path d="M70.8312 9.24829C66.3559 9.24829 62.8379 13.168 62.8379 17.5678C62.8379 22.5793 66.9166 25.9027 70.7548 25.9027C73.128 25.9027 74.39 24.9607 75.3218 23.8791V25.5214C75.3218 28.3941 73.5775 30.1139 70.9444 30.1139C68.4009 30.1139 67.1256 28.2229 66.6822 27.1494L63.4822 28.4869C64.6178 30.8877 66.9023 33.3903 70.9709 33.3903C75.4207 33.3903 78.8123 30.5869 78.8123 24.7089V9.7468H75.3208V11.1577C74.2483 10.0017 72.7803 9.24829 70.8312 9.24829ZM71.1554 12.5115C73.3502 12.5115 75.6031 14.3852 75.6031 17.5852C75.6031 20.8371 73.3543 22.6303 71.1075 22.6303C68.721 22.6303 66.5017 20.6924 66.5017 17.6168C66.5007 14.4198 68.8066 12.5115 71.1554 12.5115Z" fill="#98A2B3"/>
<path d="M94.3343 9.22784C90.1129 9.22784 86.5673 12.5869 86.5673 17.5433C86.5673 22.7882 90.5186 25.8985 94.739 25.8985C98.2621 25.8985 100.424 23.9708 101.715 22.2449L98.8361 20.3294C98.0888 21.4885 96.84 22.6211 94.7563 22.6211C92.4157 22.6211 91.3392 21.3396 90.6725 20.098L101.837 15.4657L101.257 14.1078C100.181 11.4492 97.6637 9.22784 94.3343 9.22784ZM94.4801 12.4299C96.0011 12.4299 97.0959 13.2383 97.5608 14.2088L90.1047 17.3252C89.7836 14.9122 92.0691 12.4299 94.4801 12.4299Z" fill="#98A2B3"/>
<path d="M81.246 25.4041H84.9129V0.86145H81.246V25.4041Z" fill="#98A2B3"/>
</svg>
