<svg width="106" height="30" viewBox="0 0 106 30" fill="none" xmlns="http://www.w3.org/2000/svg">
<path d="M8.48777 1.77665C9.2297 1.77665 12.4698 1.5361 16.4113 4.5067C16.5881 4.64002 16.6229 4.89216 16.4954 5.07184L14.6029 7.72366C14.4667 7.91493 14.2029 7.95261 14.0175 7.8106C13.6697 7.54107 13.0756 7.11504 12.38 6.75857C11.2613 6.18763 9.77456 5.70364 8.49068 5.70364C7.20679 5.70364 5.14621 6.12387 5.14621 8.14389C5.14621 9.76975 6.58369 10.3813 11.0179 11.4739C13.9044 12.2245 17.2721 13.6098 17.2721 18.0324C17.2721 22.1014 13.8899 24.6663 9.22681 24.6663C6.4156 24.6663 2.56106 23.5997 0.115018 21.1334C-0.0327881 20.9827 -0.0385809 20.7422 0.10053 20.5828L2.22777 18.0759C2.37848 17.8991 2.648 17.8817 2.81899 18.0411C3.62757 18.7975 5.99247 20.7132 9.21521 20.7132C13.0553 20.7132 12.9017 18.4004 12.9017 18.0556C12.9017 17.3194 12.3684 16.2877 10.473 15.7544C8.57762 15.2212 3.82465 14.3314 2.04519 12.2593C0.952585 10.9638 0.798977 9.5263 0.798977 8.44529C0.798977 6.00795 2.37557 1.77665 8.48777 1.77665Z" fill="#98A2B3"/>
<path d="M28.2938 7.07446C24.8711 7.07446 23.0221 9.59296 23.0221 9.59296V7.84827C23.0221 7.62221 22.8395 7.43673 22.6105 7.43673H19.098C18.8719 7.43673 18.6864 7.61932 18.6864 7.84827V28.9381C18.6864 29.1642 18.869 29.3497 19.098 29.3497H22.625C22.8511 29.3497 23.0365 29.1671 23.0365 28.9381V22.368C23.0365 22.368 24.7523 24.6691 28.4793 24.6691C31.4354 24.6691 36.2 22.2956 36.2 15.9428C36.1971 9.59006 31.7165 7.07446 28.2938 7.07446ZM27.3809 20.9189C24.9899 20.9189 22.9612 18.841 22.9612 15.8704C22.9612 14.059 24.0973 10.8942 27.3316 10.8942C30.5659 10.8942 31.8006 13.5026 31.8006 15.8704C31.8006 18.2381 30.4964 20.9189 27.3809 20.9189Z" fill="#98A2B3"/>
<path d="M46.341 7.07446C40.8113 7.07446 37.3799 11.6217 37.3799 15.908C37.3799 20.6059 41.0258 24.7126 46.3758 24.7126C51.7257 24.7126 55.3716 20.4871 55.3716 15.908C55.3745 11.3289 51.8706 7.07446 46.341 7.07446ZM46.3758 20.9189C44.1181 20.9189 41.6547 19.0293 41.6547 15.8935C41.6547 12.7577 43.8775 10.8971 46.3758 10.8971C48.2943 10.8971 51.0244 12.4853 51.0244 15.8935C51.0244 19.3018 48.6363 20.9189 46.3758 20.9189Z" fill="#98A2B3"/>
<path d="M66.4335 10.7986V7.80481C66.4335 7.57875 66.2509 7.39327 66.0219 7.39327H62.0138V3.33585C62.0138 3.1098 61.8312 2.92432 61.6022 2.92432H58.1476C57.9216 2.92432 57.7361 3.1069 57.7361 3.33585V7.39327H56.0465C55.8204 7.39327 55.6349 7.57585 55.6349 7.80481V10.7986C55.6349 11.0247 55.8175 11.2101 56.0465 11.2101H57.7361C57.7361 11.2101 57.7361 17.7802 57.7361 19.6872C57.7361 21.5942 58.6056 24.6141 62.3963 24.6141C64.141 24.6141 65.6307 24.0026 66.1929 23.7417C66.3378 23.6751 66.4306 23.5302 66.4306 23.3679V20.435C66.4306 20.1712 66.1349 20.0118 65.9176 20.1625C65.5205 20.435 64.8743 20.7248 63.9179 20.7248C62.1065 20.7248 62.0109 19.4931 62.0109 18.6236C62.0109 17.7542 62.0109 11.2101 62.0109 11.2101H66.019C66.2509 11.2101 66.4335 11.0247 66.4335 10.7986Z" fill="#98A2B3"/>
<path d="M70.3604 5.3384C71.8345 5.3384 73.0296 4.14336 73.0296 2.6692C73.0296 1.19504 71.8345 0 70.3604 0C68.8862 0 67.6912 1.19504 67.6912 2.6692C67.6912 4.14336 68.8862 5.3384 70.3604 5.3384Z" fill="#98A2B3"/>
<path d="M72.085 24.3243H68.6246C68.3986 24.3243 68.2131 24.1417 68.2131 23.9127V7.80479C68.2131 7.57874 68.3957 7.39325 68.6246 7.39325H72.085C72.3111 7.39325 72.4966 7.57584 72.4966 7.80479V23.9127C72.4966 24.1388 72.3111 24.3243 72.085 24.3243Z" fill="#98A2B3"/>
<path d="M76.3132 11.2101H74.6468C74.4208 11.2101 74.2353 11.0275 74.2353 10.7985V7.80475C74.2353 7.57869 74.4179 7.39321 74.6468 7.39321H76.3132C76.3132 7.39321 76.3132 7.03094 76.3132 6.3064C76.3132 5.58186 76.435 1.01727 81.5531 1.01727C84.089 1.01727 84.915 1.58531 84.915 1.58531C84.915 1.58531 84.915 4.35594 84.915 4.66315C84.915 4.97035 84.8048 5.22539 84.4802 5.09787C84.1556 4.97035 83.1935 4.71821 82.4168 4.71821C81.6401 4.71821 80.5677 5.17033 80.5677 6.54695C80.5677 7.03674 80.5677 7.39321 80.5677 7.39321H86.8422C87.0132 7.39321 87.1639 7.49754 87.2248 7.65694L91.6155 19.0119L95.5599 7.69462C95.6178 7.52942 95.7743 7.41929 95.9482 7.41929H99.8057C99.9883 7.41929 100.116 7.60188 100.049 7.76997C99.1449 10.1117 94.0181 23.3765 93.3573 25.0603C92.6327 26.9094 91.401 29.425 87.8682 29.425C85.8192 29.425 84.4976 28.7381 83.947 28.3787C83.776 28.2657 83.7122 28.0454 83.7992 27.86L85.057 25.1618C85.1091 25.0488 85.2483 25.0053 85.3555 25.0719C85.7149 25.2922 86.535 25.7211 87.4885 25.7211C88.8912 25.7211 89.5172 24.0634 89.5172 24.0634L84.1383 11.2101H80.5967V23.9446C80.5967 24.1706 80.4141 24.3561 80.1852 24.3561H76.7132C76.4871 24.3561 76.3016 24.1706 76.3016 23.9446L76.3132 11.2101Z" fill="#98A2B3"/>
<path d="M102.159 8.56689H103.443C103.8 8.56689 104.075 8.66833 104.26 8.85092C104.417 9.00742 104.501 9.22767 104.501 9.49141V9.5001C104.501 9.95221 104.257 10.2362 103.901 10.3695L104.585 11.3723H103.863L103.263 10.4739H103.255H102.776V11.3723H102.159V8.56689ZM103.402 9.92903C103.704 9.92903 103.875 9.76963 103.875 9.53198V9.52329C103.875 9.25955 103.689 9.12334 103.391 9.12334H102.776V9.92903H103.402Z" fill="#98A2B3"/>
<path d="M103.278 12.6823C101.817 12.6823 100.629 11.4941 100.629 10.0334C100.629 8.57276 101.817 7.38452 103.278 7.38452C104.738 7.38452 105.927 8.57276 105.927 10.0334C105.927 11.4941 104.736 12.6823 103.278 12.6823ZM103.278 7.67724C101.976 7.67724 100.919 8.73506 100.919 10.0363C100.919 11.3376 101.976 12.3954 103.278 12.3954C104.579 12.3954 105.637 11.3376 105.637 10.0363C105.637 8.73506 104.576 7.67724 103.278 7.67724Z" fill="#98A2B3"/>
</svg>
