<svg width="119" height="34" viewBox="0 0 119 34" fill="none" xmlns="http://www.w3.org/2000/svg">
<path d="M9.21081 0.943385C9.05828 0.418022 7.49067 0 7.02462 0C3.90916 0 0 5.15196 0 9.22777C0 10.9705 1.37274 12.7387 2.76523 13.3149C3.33579 13.5521 3.72555 13.5493 3.8696 13.3488C4.008 13.1567 3.9374 12.7952 3.60128 12.3009C3.00248 11.4196 2.79628 9.77854 2.77651 8.8295C2.73131 6.84385 4.10404 3.31885 5.64059 2.13819C5.77899 2.03086 6.02472 1.85572 6.02472 2.18901C6.02472 8.12336 6.02472 14.0436 6.02472 19.9751C6.02472 20.9072 5.79877 22.2912 5.61235 23.3278C5.55304 23.6611 4.85538 25.3982 5.40899 25.3982C5.92023 25.3982 6.99921 24.6638 7.38617 24.2543C8.13467 23.4578 8.66567 22.4099 8.95942 21.3196C9.13454 20.6671 9.22494 19.139 9.22494 18.4979V0.98576C9.21647 0.971637 9.21363 0.960332 9.21081 0.943385Z" fill="#98A2B3"/>
<path d="M117.935 17.1393C117.839 17.0546 117.721 16.9953 117.585 16.9953C117.325 16.9953 117.158 17.1421 117.105 17.3568C117 17.7804 116.851 18.464 116.704 18.9357C116.449 19.7576 116.065 20.5457 115.421 20.5457C114.232 20.5457 113.967 18.2578 113.91 17.5178C113.84 16.6026 113.834 15.5632 113.811 14.761V11.8885L113.927 10.383C113.955 10.013 114.015 9.73055 113.919 9.37183C113.837 9.06678 113.656 8.80126 113.413 8.61484C112.902 8.22506 111.518 7.74207 110.992 7.74207C110.699 7.74207 110.433 7.86069 110.241 8.05276C110.032 8.26178 109.871 8.64592 109.764 8.90578C109.493 9.55825 109.258 10.1457 109.058 10.7022C108.809 11.3857 108.479 12.4816 108.207 13.5436C108.021 14.278 107.897 14.9361 107.784 15.662C107.767 15.7694 107.767 15.8005 107.75 15.9078C107.75 15.9106 107.741 15.9812 107.73 16.0038C107.705 16.0688 107.626 16.0518 107.614 15.984C107.6 15.8965 107.592 15.823 107.586 15.7355C107.442 14.0464 107.292 12.2896 107.335 10.5864C107.346 10.1486 107.357 9.62601 107.273 9.30684C107.199 9.03568 107.064 8.78997 106.88 8.58943C106.442 8.10644 105.685 7.87763 105.072 7.79572C104.77 7.75618 104.408 7.6884 104.14 7.84658C103.886 7.99628 103.683 8.40582 103.564 8.64308C102.793 10.1881 102.174 12.25 101.604 13.9645L101.623 9.01028C101.623 8.8973 101.632 8.70241 101.604 8.58943C101.567 8.4482 101.482 8.32393 101.369 8.23919C101.33 8.21095 101.183 8.14031 101.061 8.10641C100.556 7.96519 100.081 7.86354 99.5559 7.78727C99.4401 7.77033 99.265 7.74207 99.1492 7.74207C98.9571 7.74207 98.7989 7.85504 98.7198 8.01604C98.5673 8.31544 98.5758 13.9221 98.5899 16.2298C98.5137 16.8568 98.395 17.6788 98.1606 18.4527C97.9629 19.1052 97.2963 20.444 96.5082 20.5994C95.675 20.766 95.1948 19.9017 95.0084 18.5657C94.7655 16.3795 94.87 12.2698 95.0056 9.9565C95.0705 8.83516 95.2796 8.41147 94.0933 8.10924C93.2883 7.90305 92.8024 7.872 92.4692 7.92002C92.1246 7.97086 91.9636 8.38607 92.0201 9.12045C90.9948 7.55 89.5175 7.32684 88.4866 7.437C86.0659 7.69968 84.3402 11.2417 84.0436 13.9306C83.8628 15.5689 84.0182 17.0602 84.2187 18.3002C84.1594 19.1306 84.0323 20.6332 82.5409 20.5513C81.3094 20.4835 80.6033 18.4612 80.8208 15.7524C80.9592 14.0323 81.5241 11.6089 81.6907 10.8039C82.0523 9.0357 81.0185 8.69675 79.5667 8.88881C78.804 8.9905 77.7533 9.21083 76.5953 9.40573C76.8382 8.516 76.745 7.56411 76.0558 7.23647C75.4259 6.93707 74.3356 6.9964 73.7227 7.67428C72.8499 8.63463 72.6212 10.3491 73.9459 11.2162C73.7849 12.5522 72.2681 16.1846 70.3446 18.7295C70.3757 17.2692 70.5254 10.7022 70.4491 8.95098C70.4208 8.31828 69.8588 8.07255 69.3447 7.96239C69.2656 7.94545 68.6047 7.88329 68.6047 7.87482C68.2544 7.84657 67.924 7.89176 67.6895 8.081C67.3901 8.32109 67.4042 8.60071 67.4438 9.13455C66.3479 7.45677 64.8113 7.3184 63.7125 7.53871C61.4049 7.99911 59.7836 11.2868 59.4927 13.9334C59.3769 14.9983 59.3684 16.0462 59.4306 16.9953C59.456 17.3737 59.4899 17.7324 59.5407 18.077C59.1735 19.4017 58.555 20.4355 57.7726 20.605C56.9422 20.7858 56.4591 19.9073 56.2727 18.5713C56.0298 16.3851 56.1343 12.2754 56.2699 9.96215C56.3349 8.84081 56.5439 8.41712 55.3576 8.11489C54.5526 7.9087 54.0668 7.87766 53.7335 7.92567C53.3889 7.97651 53.2279 8.39172 53.2844 9.1261C52.2591 7.55566 50.7818 7.3325 49.7509 7.44265C47.3303 7.70534 45.6045 11.2473 45.3079 13.9363C45.2034 14.8825 45.2119 15.7807 45.274 16.6083C45.0876 17.1817 44.791 17.9019 44.5622 18.3313C43.0991 21.0908 41.4694 20.7632 41.2123 17.4076C41.1332 16.3767 41.1135 15.2892 41.1135 14.2526C41.1954 11.863 41.2801 9.4707 41.362 7.08114C42.6783 7.09244 44.0114 7.08396 45.3926 7.04159C45.9519 7.02464 46.3134 5.19151 45.7937 5.15479C44.3391 5.0531 42.8901 4.9599 41.4383 4.87799L41.571 1.04507C41.571 1.03378 41.571 1.0225 41.5626 0.994251C41.4863 0.728744 41.2801 0.621413 41.0287 0.536677C40.7321 0.440643 40.2605 0.290937 39.8085 0.177956C39.1589 0.0169574 38.2776 -0.209007 38.2098 0.776756C38.159 1.51678 38.1053 3.01379 38.0573 4.70004C37.0461 4.65202 36.0293 4.60967 35.004 4.57012C34.4052 4.54753 33.7047 6.92011 34.6622 6.94271C35.792 6.96813 36.8993 6.99638 38.0037 7.0218C37.9698 8.61201 37.837 12.0495 37.8398 15.0181C37.2664 16.5066 36.4699 17.9358 35.5011 18.6984C35.7779 17.7268 35.679 15.8541 33.5437 14.2046C32.7867 13.6199 31.88 12.9279 30.609 11.9732C31.4027 11.0016 32.2614 9.62602 32.2811 8.56964C32.2924 7.91717 31.7925 7.29861 30.6711 7.30708C28.6459 7.3212 27.2902 9.20799 27.2958 10.7643C27.2987 11.7444 27.9229 12.4365 28.194 12.798C24.926 18.9159 24.203 19.6644 23.5759 19.6644C23.1692 19.6644 22.9828 18.7775 23.0138 16.0434C23.0421 13.5973 23.2116 11.9478 23.2144 9.96215C23.2144 9.13174 22.6946 8.65723 22.1608 8.35218C21.8642 8.18271 20.5791 7.70534 20.1949 7.69404C19.6329 7.67709 18.825 8.194 18.1528 8.94533C16.5852 10.6937 15.7124 13.3629 14.9724 15.5858L14.9921 9.01311C14.9921 8.90013 15.0006 8.70524 14.9724 8.59226C14.9018 8.3098 14.6956 8.18268 14.4329 8.10924C13.9358 7.97084 13.0376 7.7449 12.5207 7.7449C12.3286 7.7449 12.1987 7.87763 12.1394 8.03863C12.0885 8.17703 12.1281 11.2897 12.1111 14.5407C12.0998 16.6845 12.0829 18.7493 12.1224 20.0994C12.1648 21.5286 12.193 22.4325 14.0205 22.4409C14.8735 22.4438 15.0628 22.4664 15.1814 21.7518C15.5938 19.3142 16.9383 13.3968 19.8871 10.2474C19.9803 10.1599 20.1498 10.2135 20.1385 10.4112C19.9407 13.5662 19.712 17.3116 20.1328 20.3734C20.2514 21.2433 20.7712 22.5681 21.8332 22.5681C23.2596 22.5681 24.299 22.2432 27.0162 17.8765C27.68 16.8088 28.4341 15.518 29.3464 13.9306C29.9029 14.4391 30.4706 14.9361 31.0185 15.453C32.0241 16.3964 32.5805 17.3907 32.6031 18.3002C32.6286 19.4215 32.0523 20.3734 31.14 20.3706C29.8577 20.3649 29.2165 19.1221 28.4454 19.1249C27.6348 19.1278 26.9851 20.5485 26.9908 21.1614C26.9993 21.8619 28.8324 22.6726 31.1909 22.6669C32.9788 22.6641 34.3939 21.9721 35.6112 20.8903C36.5688 20.0373 37.5376 18.3736 38.0771 17.0207C38.1675 19.3763 39.4526 22.4325 41.6586 22.4325C42.7065 22.4325 43.7205 21.7292 44.5029 20.7349C45.0283 20.0683 45.3305 19.5402 45.6468 18.7662C45.8474 19.4272 46.1298 20.1559 46.353 20.492C47.0111 21.4919 47.8895 22.3929 49.1916 22.4777C50.6745 22.5737 51.6659 22.037 52.437 21.2942C53.0274 20.7265 53.3607 20.2406 53.79 19.4921C53.9538 21.023 55.3943 22.489 57.1342 22.4551C58.7527 22.424 59.5379 21.1671 59.9898 19.7153C60.1452 20.0796 60.3429 20.4299 60.5943 20.7688C62.498 23.3476 65.5937 22.8505 67.5568 20.2661C67.5681 20.8649 67.5794 21.4467 67.5822 21.6134C65.8536 23.2714 63.8905 24.8023 62.4443 26.6269C61.5348 27.7765 61.1592 29.0532 61.2128 29.9881C61.323 31.8608 63.3482 33.1544 65.1644 33.1544C68.7346 33.1544 69.8587 30.4767 70.3898 26.7483C70.675 24.7514 70.4491 22.7093 70.4943 20.8959C72.6635 18.3821 75.2932 14.3713 76.0586 11.2021L78.1714 11.1484C78.273 11.1456 78.4114 11.1598 78.4849 11.2332C78.5442 11.2925 78.482 11.4648 78.4397 11.6823C77.8861 14.487 77.1376 17.755 78.5386 20.3338C79.2108 21.571 80.2587 22.4466 81.7218 22.472C83.0776 22.4946 84.2978 21.3563 84.9305 20.2378C85.6055 21.3337 86.5179 22.3845 87.9301 22.4749C89.413 22.5709 90.4044 22.0342 91.1755 21.2914C91.7659 20.7236 92.0991 20.2378 92.5285 19.4893C92.6188 19.7802 92.7008 20.2434 92.8335 20.5005C93.4154 21.6049 94.5 22.4268 95.514 22.4664C97.5985 22.5483 98.1069 21.1727 98.6125 20.1333C98.621 20.5598 98.6775 21.4298 98.7453 21.7433C98.7792 21.9015 98.8921 22.0173 99.0362 22.0879C99.5559 22.3477 100.254 22.4325 100.9 22.4297C101.296 22.4268 101.847 22.4833 102.092 22.1161C102.234 21.9071 102.225 21.4495 102.236 21.1982C102.284 20.2068 102.318 18.5346 102.383 17.8822C102.595 16.0829 102.838 15.1056 103.31 13.9476C103.601 13.2301 103.852 12.476 104.437 11.4874C104.465 11.4394 104.516 11.4027 104.575 11.4027C104.685 11.4027 104.73 11.4987 104.73 11.5778C104.747 12.3912 104.762 13.1341 104.798 13.8289C104.897 15.7524 105.055 17.3144 105.352 18.9922C105.406 19.3029 105.462 19.656 105.561 19.9582C105.829 20.7773 106.6 21.3676 107.507 21.3676C107.784 21.3676 108.046 21.314 108.287 21.2151C108.357 21.1868 108.422 21.153 108.484 21.1106C108.609 21.0287 108.674 20.9468 108.705 20.7999C108.724 20.7067 108.722 20.5937 108.724 20.4949C108.727 20.4129 108.73 20.331 108.733 20.2491C108.786 18.7973 108.919 17.5856 109.216 16.3287C109.688 14.3204 110.281 12.4421 110.913 11.3066C110.936 11.2643 110.959 11.2106 111.012 11.2106C111.057 11.2106 111.086 11.2416 111.091 11.2868C111.097 11.3264 111.091 11.3885 111.089 11.4168C111.018 12.0438 110.998 12.6822 110.995 13.3177C110.992 14.2865 110.992 15.2553 111.046 16.2242C111.111 17.3737 111.238 18.4922 111.473 19.3339C111.588 19.7548 111.732 20.1248 111.899 20.4525C112.473 21.5682 113.489 22.4297 114.803 22.4297C116.362 22.4297 117.342 21.2546 117.749 19.8734C117.845 19.5458 117.932 19.2294 117.994 18.882C118.051 18.5261 118.215 17.385 117.935 17.1393ZM53.1573 15.535C53.0499 19.2238 51.4032 20.7377 50.1774 20.509C48.6889 20.2322 48.2087 18.2606 48.446 14.7215C48.6606 11.5128 49.8074 9.78137 51.0925 9.77572C53.1064 9.77007 53.3606 13.3205 53.1573 15.535ZM67.3421 15.535C67.2348 19.2238 65.5881 20.7377 64.3622 20.509C62.8737 20.2322 62.3935 18.2606 62.6308 14.7215C62.9386 10.1062 65.6954 8.53577 66.9438 10.7107C67.4692 11.6286 67.4099 13.233 67.3421 15.535ZM65.975 31.5642C64.591 32.3042 63.0488 31.1433 63.5798 29.3046C64.0769 27.5844 66.4721 25.1214 67.7291 23.695C67.7573 25.5875 67.9013 30.5304 65.975 31.5642ZM91.8929 15.535C91.7856 19.2238 90.1389 20.7377 88.9131 20.509C87.4245 20.2322 86.9444 18.2606 87.1816 14.7215C87.3963 11.5128 88.5431 9.78137 89.8282 9.77572C91.8421 9.77007 92.0963 13.3205 91.8929 15.535Z" fill="#98A2B3"/>
</svg>
