<svg width="120" height="24" viewBox="0 0 120 24" fill="none" xmlns="http://www.w3.org/2000/svg">
<path d="M11.2113 0.00278649V3.63118H9.20194C9.20194 3.63118 7.38773 3.37168 7.38773 5.12158V7.9738H11.2113L10.7567 11.9122H7.38773V22.9444H2.98083V11.8617H0V7.9738H3.11172V4.66919C3.11172 4.66919 2.72361 2.85498 4.34262 1.36457C5.96392 -0.125831 8.10193 0.00278649 8.10193 0.00278649H11.2113Z" fill="#98A2B3"/>
<path d="M21.8367 8.03805V10.0153C20.7114 8.53638 19.1406 7.61548 17.3999 7.61548C13.9828 7.61548 11.2109 10.6284 11.2109 15.5383C11.2109 20.416 13.9828 23.4611 17.3999 23.4611C19.1567 23.4611 20.7413 22.5241 21.8688 21.0199L21.839 22.9421H26.0828V8.03575H21.8367V8.03805ZM21.6001 17.0149C21.6001 18.5191 20.3233 19.9314 18.7456 19.9314C17.1679 19.9314 15.8911 18.5191 15.8911 17.0149V14.1627C15.8911 12.6585 17.1679 11.2462 18.7456 11.2462C20.3233 11.2462 21.6001 12.6585 21.6001 14.1627V17.0149Z" fill="#98A2B3"/>
<path d="M60.76 23.0408V21.0636C61.8853 22.5425 63.4561 23.4634 65.1968 23.4634C68.6139 23.4634 71.3858 20.4504 71.3858 15.5406C71.3858 10.6629 68.6139 7.61778 65.1968 7.61778C63.44 7.61778 61.8554 8.55474 60.7279 10.0589L60.7577 0.213989L56.3439 0.710033V22.9719L60.76 23.0408ZM60.9966 14.0663C60.9966 12.5621 62.2734 11.1497 63.8511 11.1497C65.4287 11.1497 66.7056 12.5621 66.7056 14.0663V16.9185C66.7056 18.4226 65.4287 19.835 63.8511 19.835C62.2734 19.835 60.9966 18.4226 60.9966 16.9185V14.0663Z" fill="#98A2B3"/>
<path d="M35.6751 19.8488C35.6751 19.8488 32.2718 20.044 32.2718 15.6371V15.3959C32.2718 10.989 35.6751 11.1842 35.6751 11.1842C37.9762 11.1521 38.7868 11.9627 38.7868 11.9627L39.857 8.75457C38.0106 7.39277 32.4371 7.16771 29.9408 9.46647C27.7822 11.4575 27.7822 14.684 27.8212 15.5176C27.7822 16.3513 27.7822 19.5778 29.9408 21.5688C32.4348 23.8699 38.0083 23.6425 39.857 22.2807L38.7868 19.0726C38.7868 19.0703 37.9762 19.8809 35.6751 19.8488Z" fill="#98A2B3"/>
<path d="M54.5022 17.1114C54.5022 17.1114 56.2843 7.77859 47.7621 7.72807C39.2399 7.67755 40.4708 16.1721 40.4708 16.1721C40.666 21.3254 43.0314 22.8158 47.08 23.3004C51.131 23.7872 54.2083 22.2302 54.2083 22.2302L53.269 19.2172C53.269 19.2172 49.9965 20.2208 47.4038 19.9958C44.8111 19.7684 45.0063 17.1114 45.0063 17.1114H54.5022ZM44.9443 14.0985C44.9443 14.0985 44.717 10.7938 47.6978 10.7938C50.6786 10.7938 50.4512 14.0985 50.4512 14.0985H44.9443Z" fill="#98A2B3"/>
<path d="M80.1674 7.81989C74.6192 7.81989 72.7521 11.1658 72.7521 15.6416C72.7521 20.3884 75.1588 23.4634 80.1674 23.4634C84.262 23.4634 87.5827 20.7122 87.5827 15.6416C87.5804 11.322 85.4631 7.81989 80.1674 7.81989ZM83.0564 16.9346C83.0564 18.4387 81.7451 19.8511 80.1284 19.8511C78.5117 19.8511 77.2004 18.4387 77.2004 16.9346V14.0823C77.2004 12.5782 78.5117 11.1658 80.1284 11.1658C81.7451 11.1658 83.0564 12.5782 83.0564 14.0823V16.9346Z" fill="#98A2B3"/>
<path d="M96.5393 7.81982C90.991 7.81982 89.124 11.1658 89.124 15.6416C89.124 20.3884 91.5307 23.4633 96.5393 23.4633C100.634 23.4633 103.955 20.7122 103.955 15.6416C103.955 11.3219 101.837 7.81982 96.5393 7.81982ZM99.4305 16.9345C99.4305 18.4387 98.1193 19.851 96.5026 19.851C94.8858 19.851 93.5746 18.4387 93.5746 16.9345V14.0823C93.5746 12.5781 94.8858 11.1658 96.5026 11.1658C98.1193 11.1658 99.4305 12.5781 99.4305 14.0823V16.9345Z" fill="#98A2B3"/>
<path d="M119.501 23.0087L114.653 15.5039L119.285 8.00137H114.547L110.021 14.7185V0.135986L105.57 0.604474V23.0087H110.021V15.3753L114.905 23.0087H119.501Z" fill="#98A2B3"/>
</svg>
