<svg width="106" height="25" viewBox="0 0 106 25" fill="none" xmlns="http://www.w3.org/2000/svg">
<path fill-rule="evenodd" clip-rule="evenodd" d="M0.00809748 1.43187H6.83566C11.1959 1.43187 14.7878 3.94776 14.7878 9.69945V10.9129C14.7878 16.7131 11.4144 19.3179 6.96512 19.3179H0V1.43187H0.00809748ZM3.82636 4.6677V16.0416H6.74668C9.22209 16.0416 10.8804 14.4237 10.8804 10.832V9.88549C10.8804 6.29372 9.12498 4.6758 6.60912 4.6758H3.82636V4.6677ZM16.8102 4.85375H19.868L20.3614 8.22714C20.9439 5.93779 22.4324 4.72434 25.1262 4.72434H26.0727V8.59118H24.5033C21.405 8.59118 20.6365 9.66708 20.6365 12.7249V19.3746H16.8587V4.86185H16.8102V4.85375ZM26.8331 12.4013V11.9969C26.8331 7.14311 29.9314 4.48976 34.1623 4.48976C38.474 4.48976 41.4914 7.14311 41.4914 11.9969V12.4013C41.4914 17.1661 38.5711 19.7305 34.1623 19.7305C29.4865 19.682 26.8331 17.1661 26.8331 12.4013ZM37.6246 12.3528V11.9969C37.6246 9.30303 36.2736 7.6851 34.1218 7.6851C32.0104 7.6851 30.619 9.16551 30.619 11.9969V12.3528C30.619 14.9576 31.97 16.4461 34.1218 16.4461C36.2736 16.3976 37.6246 14.9657 37.6246 12.3528ZM43.4653 4.85375H46.6122L46.9681 7.59613C47.7285 5.7517 49.3464 4.49785 51.7328 4.49785C55.4217 4.49785 57.8486 7.1512 57.8486 12.0454V12.4499C57.8486 17.2146 55.1547 19.7305 51.7328 19.7305C49.4435 19.7305 47.866 18.6951 47.1056 17.0367V24.3659H43.4167L43.4653 4.85375ZM54.0222 12.3528V12.0373C54.0222 9.15741 52.5418 7.72559 50.5599 7.72559C48.4485 7.72559 47.057 9.34347 47.057 12.0373V12.3043C47.057 14.8687 48.408 16.4866 50.5194 16.4866C52.6793 16.4461 54.0222 15.0547 54.0222 12.3528ZM63.4142 16.6727L63.0987 19.326H59.8629V0H63.5517V7.41818C64.3606 5.53331 65.9786 4.49785 68.268 4.49785C71.7303 4.54639 74.2866 6.92468 74.2866 11.7299V12.183C74.2866 16.9882 71.8598 19.7305 68.1709 19.7305C65.7521 19.682 64.1827 18.5575 63.4142 16.6727ZM70.4278 12.1749V11.8189C70.4278 9.16553 68.988 7.6851 66.9656 7.6851C64.8946 7.6851 63.4627 9.35159 63.4627 11.8674V12.183C63.4627 14.8768 64.8541 16.4542 66.9251 16.4542C69.1255 16.4461 70.4278 15.0547 70.4278 12.1749ZM75.9126 12.4013V11.9969C75.9126 7.14311 79.011 4.48976 83.2418 4.48976C87.5536 4.48976 90.5709 7.14311 90.5709 11.9969V12.4013C90.5709 17.1661 87.6021 19.7305 83.2418 19.7305C78.566 19.682 75.9126 17.1661 75.9126 12.4013ZM86.7446 12.3528V11.9969C86.7446 9.30303 85.3936 7.6851 83.2418 7.6851C81.1304 7.6851 79.739 9.16551 79.739 11.9969V12.3528C79.739 14.9576 81.09 16.4461 83.2418 16.4461C85.3936 16.3976 86.7446 14.9657 86.7446 12.3528ZM95.5055 11.8189L90.4254 4.85375H94.7856L97.706 9.21404L100.675 4.85375H104.987L99.8173 11.7785L105.254 19.326H100.982L97.6574 14.5208L94.4216 19.326H89.9723L95.5055 11.8189Z" fill="#98A2B3"/>
</svg>
