<svg width="116" height="23" viewBox="0 0 116 23" fill="none" xmlns="http://www.w3.org/2000/svg">
<path d="M102.145 0.871913C103.643 -0.102746 105.578 -0.193484 107.265 0.270918C107.28 1.27387 107.267 2.2778 107.272 3.28173C106.47 2.92855 105.527 2.6983 104.683 3.04465C104.014 3.31002 103.616 3.99687 103.511 4.68372C103.385 5.55496 103.467 6.43791 103.446 7.31403C105.159 7.31793 106.872 7.315 108.585 7.31598C108.598 6.20376 108.572 5.09055 108.6 3.97833C109.765 3.64662 110.917 3.2749 112.076 2.92562C112.086 4.39103 112.063 5.85741 112.089 7.32379C113.247 7.3072 114.406 7.31988 115.565 7.31598V10.1687C114.402 10.1209 113.238 10.1561 112.075 10.1522C112.08 11.7922 112.076 13.4322 112.077 15.0733C112.096 15.9816 112.028 16.8948 112.135 17.8001C112.199 18.3338 112.393 18.9251 112.894 19.2012C113.732 19.6704 114.795 19.4656 115.565 18.9504V21.8315C114.561 22.2676 113.439 22.4003 112.353 22.3232C111.323 22.2471 110.256 21.8724 109.584 21.0529C108.807 20.127 108.607 18.8734 108.591 17.7006C108.583 15.1835 108.592 12.6664 108.587 10.1482C106.873 10.1473 105.159 10.1463 103.446 10.1492C103.444 14.0996 103.445 18.0499 103.445 22.0003C102.274 22.0003 101.102 22.0003 99.9316 22.0003C99.9316 18.0509 99.9267 14.1025 99.9335 10.1531C99.1189 10.1375 98.3032 10.157 97.4886 10.1404C97.4915 9.20286 97.4954 8.26429 97.4866 7.32573C98.2974 7.3072 99.1091 7.315 99.9218 7.32086C99.9813 6.074 99.7911 4.79104 100.164 3.57637C100.479 2.47976 101.179 1.49047 102.145 0.871913Z" fill="#98A2B3"/>
<path d="M26.9256 1.07675C27.6339 0.969428 28.4008 1.21138 28.8701 1.76555C29.4203 2.37239 29.5218 3.33827 29.114 4.04756C28.6632 4.84758 27.6544 5.21929 26.7754 5.02709C25.8631 4.86319 25.1031 4.01536 25.1441 3.06997C25.1178 2.07482 25.95 1.18797 26.9256 1.07675Z" fill="#98A2B3"/>
<path d="M0.00112657 1.51194C1.70459 1.51194 3.40707 1.51194 5.11053 1.51194C6.70081 5.55009 8.3028 9.58434 9.89503 13.6225C10.3019 14.6323 10.6824 15.6538 11.1087 16.6557C13.1546 11.6098 15.2298 6.57646 17.2601 1.52364C18.8982 1.4973 20.5373 1.51779 22.1763 1.51388C22.1724 8.34235 22.1744 15.1708 22.1754 21.9993C20.9929 21.9964 19.8114 22.009 18.6299 21.9925C18.6426 16.9533 18.6289 11.9142 18.6358 6.87402C18.6377 6.64767 18.6299 6.42133 18.6143 6.19498C18.545 6.30035 18.4836 6.40962 18.4299 6.5228C16.3996 11.681 14.3303 16.8245 12.3117 21.9876C11.4707 22.0178 10.6287 21.9895 9.78674 22.0032C7.69205 16.845 5.62371 11.6751 3.53976 6.51304C3.48512 6.40572 3.42658 6.30133 3.36316 6.20084C3.32023 8.4087 3.35634 10.6185 3.34463 12.8264C3.3456 15.884 3.34268 18.9417 3.34561 21.9993C2.23046 22.0022 1.1153 21.9993 0.00112657 22.0003C0.000150931 15.1708 -0.000824704 8.34138 0.00112657 1.51194Z" fill="#98A2B3"/>
<path d="M36.5943 7.30233C38.29 6.8194 40.1183 6.83891 41.813 7.31795C42.1622 7.41551 42.5008 7.55112 42.8149 7.73552C42.7954 8.85457 42.8149 9.9746 42.8042 11.0946C41.6715 10.2292 40.2344 9.68093 38.7944 9.8624C37.6509 9.96582 36.5602 10.559 35.8762 11.4829C34.9972 12.6283 34.7942 14.1493 34.9455 15.5503C35.0586 16.647 35.5123 17.7426 36.365 18.4695C37.2509 19.2568 38.4929 19.5358 39.6519 19.448C40.7973 19.3163 41.8783 18.8314 42.8042 18.1543C42.814 19.2148 42.7993 20.2754 42.812 21.3359C41.3759 22.1905 39.6539 22.411 38.0099 22.33C36.3279 22.2413 34.6508 21.6042 33.4332 20.4217C32.1103 19.1465 31.3922 17.328 31.3073 15.5064C31.2215 13.6127 31.6069 11.6371 32.6966 10.0556C33.6098 8.70628 35.0382 7.75113 36.5943 7.30233Z" fill="#98A2B3"/>
<path d="M74.971 7.07892C76.5954 6.79306 78.296 7.00283 79.8336 7.58528C79.8355 8.66238 79.8336 9.7385 79.8346 10.8146C78.7604 10.0761 77.4482 9.67899 76.1447 9.72485C75.4881 9.75021 74.7661 10.0283 74.4666 10.6527C74.2286 11.2703 74.3934 12.08 74.9759 12.4498C75.972 13.1162 77.1603 13.3991 78.1926 13.9962C79.0053 14.4528 79.7936 15.0499 80.2053 15.9104C80.979 17.5221 80.6512 19.6519 79.2911 20.8539C77.9926 22.0676 76.1223 22.4032 74.4022 22.3388C73.1807 22.2598 71.9534 22.0188 70.8304 21.5193C70.8353 20.3866 70.8236 19.2548 70.8363 18.1231C71.7807 18.809 72.8705 19.2997 74.0237 19.4988C74.8266 19.6295 75.6998 19.6353 76.4481 19.2763C77.1643 18.9202 77.293 17.9026 76.8676 17.2802C76.4696 16.8002 75.8852 16.5357 75.3339 16.2762C74.2988 15.8109 73.211 15.4216 72.3017 14.724C71.6626 14.2254 71.1787 13.523 70.9894 12.7308C70.7085 11.5629 70.7963 10.2468 71.4753 9.2263C72.251 8.037 73.5983 7.32381 74.971 7.07892Z" fill="#98A2B3"/>
<path d="M50.6708 7.54135C51.6406 6.9589 52.8728 6.91011 53.9314 7.26622C53.9265 8.43796 53.9314 9.6097 53.9285 10.7814C53.2358 10.3326 52.3714 10.1404 51.5538 10.2234C50.5567 10.3365 49.7664 11.1024 49.3566 11.9805C48.9118 12.9103 48.8278 13.962 48.8561 14.9786C48.8561 17.3192 48.8571 19.6597 48.8561 22.0003C47.701 22.0003 46.5468 22.0003 45.3926 22.0003C45.3897 17.1084 45.3965 12.2156 45.3897 7.32378C46.5458 7.30915 47.702 7.315 48.8581 7.32085C48.8532 8.16088 48.8581 9.0009 48.8552 9.8419C49.2308 8.92773 49.7898 8.0399 50.6708 7.54135Z" fill="#98A2B3"/>
<path d="M25.463 7.32091C26.6279 7.31603 27.7937 7.30432 28.9586 7.32676C28.945 12.2176 28.9577 17.1095 28.9528 22.0003C27.7898 22.0003 26.6269 22.0003 25.4649 22.0003C25.462 17.1075 25.4659 12.2147 25.463 7.32091Z" fill="#98A2B3"/>
<path d="M60.3968 7.04999C62.0826 6.83536 63.8612 6.93061 65.4261 7.64276C66.7841 8.25545 67.8847 9.38822 68.4944 10.7443C69.1451 12.1881 69.3038 13.8094 69.1937 15.3752C69.0854 16.9039 68.6048 18.4359 67.6487 19.6506C66.6702 20.9404 65.1951 21.8149 63.6155 22.1398C62.2653 22.4208 60.8525 22.4198 59.5023 22.1359C57.8866 21.7906 56.391 20.8524 55.4437 19.4885C54.3316 17.908 54.0151 15.8986 54.1566 14.0051C54.2522 12.3982 54.7523 10.7783 55.7786 9.51776C56.9025 8.10624 58.6262 7.27341 60.3968 7.04999ZM64.3831 10.8351C63.6241 10.0674 62.5002 9.76884 61.4446 9.83807C60.6046 9.8849 59.7556 10.1687 59.1331 10.7502C58.2746 11.5278 57.882 12.6868 57.7757 13.8137C57.6586 15.0526 57.7442 16.3588 58.3099 17.4885C58.7499 18.3656 59.5588 19.0551 60.512 19.3058C61.4485 19.5487 62.4681 19.5281 63.3753 19.1799C64.1509 18.8774 64.7653 18.2387 65.1009 17.4836C65.6081 16.3636 65.6584 15.1044 65.596 13.8957C65.5092 12.7913 65.1948 11.6332 64.3831 10.8351Z" fill="#98A2B3"/>
<path d="M88.3984 7.04486C90.1515 6.82734 92.0133 6.94508 93.6132 7.75287C95.0083 8.45047 96.0903 9.71135 96.6308 11.1689C97.0532 12.284 97.2011 13.4884 97.1767 14.6757C97.1795 16.4493 96.7009 18.27 95.5878 19.6767C94.5459 21.0386 92.9514 21.923 91.2685 22.2011C89.6227 22.4674 87.8841 22.3986 86.3203 21.7831C84.7358 21.1597 83.4182 19.8871 82.7509 18.3203C82.0553 16.7232 81.9826 14.926 82.1992 13.2197C82.4265 11.5133 83.1994 9.84456 84.5165 8.7099C85.5955 7.76279 86.9849 7.22631 88.3984 7.04486ZM89.3466 9.84076C88.375 9.89541 87.4114 10.3143 86.7831 11.0712C86.0944 11.8819 85.7987 12.9522 85.7187 13.9951C85.6358 15.0721 85.7181 16.1874 86.1347 17.1943C86.481 18.039 87.1386 18.7737 87.9872 19.1328C88.7736 19.4713 89.6599 19.532 90.5009 19.4062C91.2843 19.2911 92.0434 18.9163 92.5536 18.3017C93.06 17.69 93.3272 16.9191 93.4619 16.1464C93.6316 15.1093 93.6335 14.0409 93.4326 13.0087C93.254 12.1287 92.8645 11.2542 92.1611 10.6708C91.3982 10.0008 90.3387 9.7715 89.3466 9.84076Z" fill="#98A2B3"/>
</svg>
