<svg width="105" height="18" viewBox="0 0 105 18" fill="none" xmlns="http://www.w3.org/2000/svg">
<path d="M37.1866 8.59231L40.3595 0.227434H41.9901L45.163 8.59309H43.4073L42.6796 6.47315H39.5692L38.8415 8.59309L37.1866 8.59231ZM40.0085 5.1685H42.2285L41.1248 1.92058L40.0085 5.1685Z" fill="#4F4F4F"/>
<path d="M46.0408 10.6373L46.7053 9.54604C47.1485 9.84699 47.7215 9.99786 48.4234 9.99786C48.808 9.99786 49.1301 9.87904 49.3888 9.64062C49.6476 9.40221 49.7773 9.07781 49.7773 8.66898V8.02956C49.5764 8.18824 49.3568 8.32269 49.1191 8.43056C48.8807 8.53922 48.5649 8.59394 48.1725 8.59394C47.612 8.59394 47.1297 8.47043 46.724 8.2242C46.3183 7.97797 46.0088 7.63871 45.7962 7.208C45.5828 6.77729 45.4765 6.28639 45.4765 5.73451C45.4765 5.14903 45.6125 4.61826 45.8837 4.14143C46.155 3.66459 46.5403 3.28626 47.0375 3.00641C47.5346 2.72657 48.1225 2.58586 48.7994 2.58586C49.3091 2.58586 49.782 2.62807 50.2166 2.71093C50.6512 2.79457 50.9983 2.88212 51.2578 2.97436V8.69321C51.2578 9.23649 51.1367 9.70081 50.8944 10.0854C50.652 10.47 50.319 10.7608 49.8969 10.957C49.4748 11.1532 48.9917 11.2517 48.4484 11.2517C47.8379 11.2517 47.3533 11.197 46.9937 11.0883C46.6349 10.9797 46.3168 10.8296 46.0408 10.6373ZM49.7789 6.09644V3.98978C49.6616 3.94835 49.5405 3.9163 49.4154 3.89598C49.2903 3.87487 49.0933 3.86471 48.826 3.86471C48.425 3.86471 48.0881 3.95069 47.8161 4.12188C47.544 4.29307 47.3377 4.51664 47.1954 4.79257C47.0531 5.06851 46.982 5.36946 46.982 5.69543C46.982 6.14725 47.0946 6.52715 47.3205 6.8367C47.5464 7.14625 47.9099 7.30102 48.4117 7.30102C49.3232 7.30102 49.7789 6.89923 49.7789 6.09644Z" fill="#4F4F4F"/>
<path d="M57.4418 6.83672L58.2446 7.73958C58.2195 7.76459 58.1508 7.83338 58.0374 7.94672C57.9249 8.05929 57.7615 8.18123 57.5481 8.31021C57.3347 8.43997 57.0634 8.55254 56.7328 8.64868C56.4021 8.74483 56.0074 8.7933 55.5477 8.7933C54.9208 8.7933 54.3752 8.65728 53.9109 8.38603C53.4465 8.11479 53.0854 7.73567 52.8259 7.25102C52.5664 6.76637 52.4374 6.20981 52.4374 5.58289C52.4374 5.006 52.5648 4.4854 52.8196 4.02107C53.0745 3.55675 53.4254 3.18935 53.8733 2.91732C54.3205 2.64608 54.8372 2.51006 55.4219 2.51006C55.9651 2.51006 56.4209 2.60621 56.7891 2.79851C57.1572 2.9908 57.4535 3.24798 57.6794 3.57004C57.9053 3.89209 58.0679 4.25323 58.1687 4.65502C58.2688 5.05603 58.3196 5.46642 58.3196 5.88384V6.09724H53.9296C53.9296 6.38178 54.0109 6.63036 54.1743 6.84376C54.3377 7.05716 54.544 7.22444 54.795 7.3456C55.0459 7.46677 55.3007 7.52774 55.5602 7.52774C55.9448 7.52774 56.2622 7.48396 56.5131 7.39641C56.764 7.30887 56.9649 7.21037 57.115 7.10172C57.2659 6.9915 57.3745 6.90395 57.4418 6.83672ZM53.3778 1.81983L54.6824 0.0391379H56.0746L57.3792 1.81983H56.0746L55.3726 0.866949L54.6832 1.81983H53.3778ZM53.9171 5.03102H56.8016C56.8016 4.83012 56.7492 4.63157 56.6444 4.43537C56.5397 4.23916 56.3873 4.07579 56.1864 3.94603C55.9855 3.81627 55.7306 3.75139 55.4211 3.75139C55.0951 3.75139 54.8208 3.81627 54.5995 3.94603C54.3775 4.07579 54.2087 4.23916 54.0914 4.43537C53.9757 4.63157 53.9171 4.83012 53.9171 5.03102Z" fill="#4F4F4F"/>
<path d="M59.4609 8.59236V2.71014H60.8781L60.9156 3.37457C61.0665 3.20729 61.2838 3.03376 61.5676 2.85397C61.8521 2.67418 62.2242 2.58428 62.6838 2.58428C63.4116 2.58428 63.9697 2.80394 64.3582 3.24247C64.7467 3.68178 64.9413 4.27274 64.9413 5.01691V8.59158H63.4616V5.03098C63.4616 4.6628 63.3592 4.37436 63.1544 4.16565C62.9496 3.95693 62.6838 3.85219 62.3579 3.85219C61.9482 3.85219 61.6098 4.00305 61.3417 4.304C61.0743 4.60496 60.9406 4.97313 60.9406 5.40775V8.59314L59.4609 8.59236Z" fill="#4F4F4F"/>
<path d="M70.6735 6.86171L71.5513 7.81459C71.2754 8.10773 70.9471 8.34145 70.5664 8.51655C70.1857 8.69243 69.7487 8.77998 69.2555 8.77998C68.5864 8.77998 68.0157 8.64866 67.5436 8.38523C67.0715 8.1218 66.7119 7.7544 66.4649 7.28148C66.2179 6.80934 66.0951 6.26372 66.0951 5.64462C66.0951 5.07633 66.2288 4.55338 66.4961 4.07655C66.7635 3.59971 67.134 3.21981 67.6061 2.93528C68.0783 2.65074 68.6286 2.50847 69.2555 2.50847C69.7323 2.50847 70.167 2.59446 70.5601 2.76565C70.9533 2.93684 71.2879 3.169 71.5638 3.46135L70.6235 4.41424C70.4648 4.22194 70.2701 4.07185 70.0403 3.96242C69.8105 3.85376 69.5494 3.79904 69.2563 3.79904C68.8803 3.79904 68.5684 3.88659 68.3222 4.06247C68.0752 4.23836 67.8914 4.46583 67.7703 4.74567C67.6491 5.02552 67.5882 5.32491 67.5882 5.64227C67.5882 5.93541 67.6483 6.22385 67.7703 6.5076C67.8914 6.79214 68.0752 7.02587 68.3222 7.21034C68.5684 7.39404 68.8803 7.48628 69.2563 7.48628C69.5486 7.48628 69.8183 7.43 70.0653 7.31665C70.3116 7.20644 70.514 7.05401 70.6735 6.86171Z" fill="#4F4F4F"/>
<path d="M72.5543 1.78222V0.227434H74.1348V1.783L72.5543 1.78222ZM72.6051 8.59231V2.71008H74.0848V8.59231H72.6051Z" fill="#4F4F4F"/>
<path d="M79.1134 8.59239L79.0759 8.04051C78.9172 8.23281 78.6726 8.404 78.3419 8.55487C78.0112 8.70573 77.6501 8.78078 77.2569 8.78078C76.9388 8.78078 76.6237 8.71355 76.3103 8.57988C75.9968 8.44621 75.7373 8.2375 75.5325 7.95297C75.3277 7.66843 75.2253 7.30885 75.2253 6.87423C75.2253 6.2051 75.4637 5.68684 75.9405 5.31867C76.4174 4.95049 77.0396 4.76679 77.8096 4.76679C77.9518 4.76679 78.1207 4.77148 78.3177 4.7793C78.5139 4.7879 78.7671 4.80041 79.0767 4.81682V4.67924C79.0767 4.38689 78.9594 4.15707 78.7257 3.98979C78.4912 3.82251 78.1863 3.73887 77.8103 3.73887C77.3921 3.73887 77.0576 3.79359 76.8067 3.90224C76.5557 4.0109 76.3345 4.12815 76.1422 4.25322L75.4653 3.24953C75.624 3.13228 75.8123 3.01737 76.0297 2.9048C76.247 2.79224 76.5143 2.69766 76.8325 2.62261C77.1498 2.54757 77.543 2.51005 78.0112 2.51005C78.764 2.51005 79.3659 2.7086 79.817 3.1057C80.2688 3.5028 80.4939 4.01481 80.4939 4.64172V8.59239H79.1134ZM79.0759 6.51075V5.93386C78.8836 5.91744 78.6749 5.90493 78.449 5.89634C78.2231 5.88852 78.0519 5.88383 77.9346 5.88383C77.4578 5.88383 77.1232 5.97763 76.9309 6.16602C76.7386 6.35441 76.6425 6.56937 76.6425 6.8117C76.6425 7.06262 76.7324 7.25882 76.9122 7.40109C77.092 7.54336 77.3578 7.61449 77.7087 7.61449C77.9425 7.61449 78.1621 7.56447 78.3669 7.46363C78.5717 7.36357 78.7414 7.2299 78.875 7.06262C79.0095 6.89534 79.0759 6.71164 79.0759 6.51075Z" fill="#4F4F4F"/>
<path d="M83.5533 8.59231L81.3841 0.227434H83.1148L84.482 6.48565L86.1001 0.465849H87.5298L89.1604 6.48565L90.5151 0.227434H92.1707L89.9757 8.59309H88.3201L86.7645 3.06185L85.1839 8.59309L83.5533 8.59231Z" fill="#4F4F4F"/>
<path d="M97.1868 6.83671L97.9896 7.73956C97.9646 7.76458 97.8958 7.83337 97.7825 7.94671C97.6699 8.05928 97.5066 8.18122 97.2932 8.3102C97.0798 8.43996 96.8085 8.55252 96.4778 8.64867C96.1472 8.74482 95.7524 8.79328 95.2928 8.79328C94.6659 8.79328 94.1203 8.65727 93.6559 8.38602C93.1916 8.11478 92.8305 7.73566 92.571 7.25101C92.3114 6.76636 92.1825 6.20979 92.1825 5.58288C92.1825 5.00599 92.3099 4.48538 92.5647 4.02106C92.8195 3.55673 93.1705 3.18934 93.6184 2.91731C94.0656 2.64606 94.5822 2.51005 95.1677 2.51005C95.711 2.51005 96.1667 2.6062 96.5349 2.79849C96.9031 2.99079 97.1993 3.24797 97.4253 3.57002C97.6512 3.89208 97.8138 4.25322 97.9146 4.65501C98.0147 5.05602 98.0655 5.46641 98.0655 5.88383V6.09723H93.6755C93.6755 6.38177 93.7568 6.63034 93.9202 6.84375C94.0835 7.05715 94.2899 7.22443 94.5408 7.34559C94.7917 7.46675 95.0466 7.52773 95.3061 7.52773C95.6907 7.52773 96.0081 7.48395 96.259 7.3964C96.5099 7.30885 96.7108 7.21036 96.8609 7.1017C97.011 6.99149 97.1196 6.90394 97.1868 6.83671ZM93.6622 5.031H96.5466C96.5466 4.83011 96.4943 4.63156 96.3895 4.43536C96.2848 4.23915 96.1323 4.07578 95.9314 3.94602C95.7305 3.81626 95.4757 3.75138 95.1662 3.75138C94.8402 3.75138 94.5658 3.81626 94.3446 3.94602C94.1226 4.07578 93.9538 4.23915 93.8365 4.43536C93.7208 4.63156 93.6622 4.83011 93.6622 5.031Z" fill="#4F4F4F"/>
<path d="M99.206 8.4047V0.227434H100.686V3.11187C100.786 3.01182 100.98 2.89847 101.269 2.7734C101.557 2.64833 101.898 2.58501 102.291 2.58501C102.86 2.58501 103.345 2.72103 103.746 2.99228C104.147 3.2643 104.455 3.62544 104.668 4.07726C104.88 4.52908 104.987 5.03014 104.987 5.58202C104.987 6.1675 104.851 6.70218 104.58 7.18761C104.308 7.67304 103.926 8.06154 103.433 8.35389C102.939 8.64625 102.35 8.7932 101.664 8.7932C101.154 8.7932 100.684 8.75099 100.253 8.66813C99.8227 8.58449 99.4733 8.49616 99.206 8.4047ZM100.686 5.1685V7.38851C100.803 7.42212 100.924 7.45104 101.049 7.47606C101.174 7.50107 101.371 7.51358 101.639 7.51358C102.04 7.51358 102.377 7.42368 102.649 7.24389C102.92 7.0641 103.127 6.83038 103.269 6.54193C103.411 6.25349 103.483 5.94629 103.483 5.62032C103.483 5.31937 103.433 5.03483 103.332 4.7675C103.232 4.50016 103.077 4.28441 102.867 4.12182C102.659 3.95845 102.387 3.87715 102.052 3.87715C101.609 3.87715 101.27 3.99206 101.036 4.22188C100.803 4.45169 100.686 4.7675 100.686 5.1685Z" fill="#4F4F4F"/>
<path d="M37.0725 17.9047V13.3607H39.9334V13.9399H37.7259V15.2618H39.3878V15.8473H37.7259V17.3184H40.0968V17.9039L37.0725 17.9047Z" fill="#4F4F4F"/>
<path d="M40.5471 17.5161L40.9215 17.1073C41.0348 17.2206 41.1708 17.3113 41.3303 17.3801C41.489 17.4481 41.6735 17.4825 41.8822 17.4825C42.0862 17.4825 42.2566 17.4497 42.3934 17.384C42.5294 17.3184 42.5974 17.2152 42.5974 17.0737C42.5974 16.9736 42.5701 16.8947 42.5154 16.8353C42.4606 16.7766 42.3676 16.7227 42.2363 16.675C42.1042 16.6273 41.9228 16.5765 41.6914 16.5218C41.5281 16.4812 41.3686 16.4257 41.2146 16.3545C41.0598 16.2842 40.9332 16.1865 40.8331 16.0614C40.7331 15.9363 40.6831 15.7745 40.6831 15.5744C40.6831 15.3704 40.7433 15.1976 40.8636 15.0569C40.984 14.9162 41.1396 14.8107 41.3303 14.7403C41.521 14.67 41.7212 14.6348 41.9299 14.6348C42.198 14.6348 42.4294 14.67 42.6248 14.7403C42.8202 14.8107 42.9883 14.91 43.129 15.0366L42.7952 15.4587C42.6998 15.3727 42.5802 15.3 42.4372 15.2406C42.2941 15.182 42.1268 15.1523 41.9361 15.1523C41.7407 15.1523 41.5844 15.1843 41.4663 15.2477C41.3483 15.311 41.2889 15.4157 41.2889 15.5611C41.2889 15.6971 41.3686 15.7988 41.5273 15.8644C41.686 15.9301 41.8908 15.9926 42.1401 16.052C42.3403 16.0974 42.5208 16.1575 42.6819 16.2326C42.8429 16.3076 42.9726 16.4085 43.0704 16.5359C43.1681 16.6633 43.2165 16.829 43.2165 17.033C43.2165 17.2418 43.154 17.4176 43.0289 17.5607C42.9039 17.7037 42.7413 17.8124 42.5419 17.8874C42.3418 17.9625 42.1261 18 41.8947 18C41.2959 18 40.8464 17.839 40.5471 17.5161Z" fill="#4F4F4F"/>
<path d="M46.3097 17.0737L46.6841 17.4684C46.5434 17.6271 46.3683 17.7561 46.1596 17.853C45.9509 17.9507 45.7125 17.9992 45.4444 17.9992C45.1035 17.9992 44.8096 17.9265 44.5618 17.7811C44.314 17.6357 44.1225 17.4372 43.9865 17.1847C43.8505 16.933 43.7825 16.643 43.7825 16.3162C43.7825 16.0074 43.8528 15.726 43.9935 15.4712C44.1342 15.2172 44.3305 15.0139 44.5829 14.8615C44.8346 14.7091 45.1223 14.6332 45.4444 14.6332C45.7125 14.6332 45.9486 14.6809 46.1526 14.7763C46.3566 14.8717 46.5317 15.0014 46.6771 15.1648L46.2753 15.5533C46.1799 15.4353 46.0642 15.3422 45.9282 15.2742C45.7922 15.2062 45.6304 15.1718 45.4444 15.1718C45.2263 15.1718 45.0387 15.225 44.8823 15.3321C44.726 15.4392 44.6064 15.5783 44.5243 15.7511C44.4422 15.9238 44.4016 16.1122 44.4016 16.3162C44.4016 16.5116 44.4438 16.6969 44.5274 16.8712C44.6111 17.0463 44.7307 17.1878 44.8855 17.2972C45.0394 17.4059 45.2263 17.4606 45.4444 17.4606C45.6304 17.4606 45.7977 17.4254 45.9454 17.3551C46.0932 17.2855 46.2143 17.1917 46.3097 17.0737Z" fill="#4F4F4F"/>
<path d="M48.6258 18C48.303 18 48.0153 17.9242 47.7605 17.7717C47.5064 17.6193 47.3071 17.4153 47.1641 17.1589C47.021 16.9025 46.9491 16.6219 46.9491 16.3178C46.9491 16.009 47.021 15.7276 47.1641 15.4728C47.3071 15.2187 47.5057 15.0155 47.7605 14.8631C48.0145 14.7106 48.303 14.6348 48.6258 14.6348C48.9479 14.6348 49.2356 14.7106 49.4873 14.8631C49.739 15.0155 49.9383 15.2187 50.0837 15.4728C50.2291 15.7268 50.3018 16.009 50.3018 16.3178C50.3018 16.6219 50.2291 16.9025 50.0837 17.1589C49.9383 17.4153 49.7397 17.6201 49.4873 17.7717C49.2356 17.9242 48.9487 18 48.6258 18ZM48.6258 17.4684C48.8486 17.4684 49.0378 17.4129 49.1949 17.3012C49.3512 17.1902 49.4716 17.0455 49.556 16.8689C49.6397 16.6914 49.6819 16.5077 49.6819 16.317C49.6819 16.1263 49.6397 15.9426 49.556 15.7651C49.4716 15.5877 49.3505 15.4439 49.1918 15.3329C49.0331 15.2219 48.8447 15.1656 48.6266 15.1656C48.4085 15.1656 48.2201 15.2211 48.0615 15.3329C47.9028 15.4439 47.7808 15.5869 47.6972 15.762C47.6128 15.9371 47.5713 16.1224 47.5713 16.317C47.5713 16.5077 47.6143 16.6907 47.7011 16.8658C47.7871 17.0409 47.909 17.1847 48.0654 17.298C48.2209 17.4122 48.4085 17.4684 48.6258 17.4684Z" fill="#4F4F4F"/>
<path d="M50.9897 17.9047V13.3607H51.6025V17.9047H50.9897Z" fill="#4F4F4F"/>
<path d="M54.4369 17.9047L54.4236 17.5232C54.3103 17.678 54.1547 17.7945 53.957 17.8742C53.7592 17.9539 53.5606 17.993 53.3605 17.993C53.1878 17.993 53.0166 17.961 52.8462 17.8976C52.6758 17.8343 52.5351 17.7296 52.4241 17.5842C52.3131 17.4388 52.2568 17.2457 52.2568 17.0049C52.2568 16.6641 52.3772 16.3921 52.6179 16.1873C52.8587 15.9833 53.2011 15.8809 53.6466 15.8809C53.7467 15.8809 53.8499 15.884 53.957 15.891C54.0633 15.8981 54.1602 15.9043 54.2462 15.9114C54.3322 15.9184 54.3892 15.9239 54.4166 15.9286V15.8129C54.4166 15.5768 54.3447 15.4072 54.2016 15.3056C54.0586 15.2032 53.8647 15.1523 53.6193 15.1523C53.3832 15.1523 53.1932 15.1852 53.0502 15.2508C52.9071 15.3165 52.7875 15.3837 52.6922 15.4517L52.4061 15.0359C52.5194 14.9452 52.6765 14.8569 52.8759 14.7701C53.076 14.6841 53.3457 14.6403 53.6865 14.6403C54.0906 14.6403 54.4111 14.7388 54.6472 14.9366C54.8833 15.1344 55.0013 15.415 55.0013 15.7777V17.624C55.0013 17.6561 55.0013 17.6944 55.0013 17.7397C55.0013 17.7851 55.0036 17.8398 55.0083 17.9031H54.4369V17.9047ZM54.4166 16.7673V16.4062C54.3939 16.3968 54.3415 16.389 54.2602 16.3827C54.1782 16.3757 54.0867 16.3694 53.9843 16.3624C53.8819 16.3554 53.7834 16.3522 53.688 16.3522C53.4606 16.3522 53.287 16.3851 53.1667 16.4507C53.0463 16.5164 52.9642 16.5985 52.9212 16.6962C52.8782 16.7939 52.8563 16.89 52.8563 16.9854C52.8563 17.1535 52.915 17.2832 53.0338 17.3739C53.1518 17.4646 53.3152 17.5099 53.5239 17.5099C53.6826 17.5099 53.8295 17.4747 53.9632 17.4044C54.0969 17.334 54.2063 17.2418 54.29 17.1285C54.3744 17.0143 54.4166 16.8939 54.4166 16.7673Z" fill="#4F4F4F"/>
<path d="M56.4537 17.9046H55.8408V15.0436C55.8408 15.0116 55.8408 14.9756 55.8408 14.935C55.8408 14.8943 55.8385 14.8287 55.8338 14.7372H56.4193L56.4396 15.2484C56.4896 15.1757 56.5592 15.096 56.6475 15.01C56.7359 14.924 56.8484 14.849 56.9844 14.7849C57.1205 14.7216 57.2838 14.6895 57.4746 14.6895C57.5426 14.6895 57.6051 14.6942 57.6622 14.7028C57.7192 14.7122 57.7724 14.7255 57.8224 14.7435L57.6864 15.3157C57.6043 15.2836 57.5004 15.268 57.373 15.268C57.2002 15.268 57.0446 15.3125 56.9063 15.4009C56.7679 15.4892 56.6577 15.6064 56.5756 15.7518C56.4935 15.8972 56.4529 16.0583 56.4529 16.2357L56.4537 17.9046Z" fill="#4F4F4F"/>
<path d="M6.3356 3.18071L15.1328 12.1522L14.2791 14.7122L7.57224 7.89118L4.81678 16.1568L2.28019 16.1349L6.3356 3.18071ZM5.57033 7.3825e-06L0 17.7952L6.02527 17.8484L8.29921 11.0273L15.0061 17.8484L17.0526 11.7097L5.57033 7.3825e-06Z" fill="#4F4F4F"/>
<path d="M26.7471 1.69158L29.2837 1.71347L25.2291 14.6669L16.4319 5.6954L17.2855 3.13536L23.9924 9.9564L26.7471 1.69158ZM25.5394 0L23.2655 6.82104L16.5585 0L14.5121 6.13862L25.9936 17.8476L31.5639 0.053155L25.5394 0Z" fill="#4F4F4F"/>
</svg>
